#!OML:ASF F:\VICON\USERDATA\INSTALL\rory3\rory3.ASF
:FULLY-SPECIFIED
:DEGREES
136
root -0.273253 15.5165 9.62211 -170.833 -3.90708 -168.866
lowerback 6.05021 1.87916 10.1467
upperback -3.67183 3.32353 2.99316
thorax -6.90363 1.08686 -2.87569
lowerneck -14.7191 0.241223 -2.26428
upperneck 31.2235 -2.09209 2.83226
head 12.9103 -1.58229 0.995922
rclavicle -1.5294e-014 3.96078e-014
rhumerus 8.7394 18.7144 -98.7149
rradius 41.4449
rwrist -66.7266
rhand -22.6997 -10.5314
rfingers 7.12502
rthumb 3.73309 -40.4784
lclavicle -1.5294e-014 3.96078e-014
lhumerus 29.9829 -59.2995 86.0574
lradius 47.4371
lwrist -4.58091
lhand -10.2844 26.1438
lfingers 7.12502
lthumb 15.7097 55.5261
rfemur -29.617 4.16707 40.6864
rtibia 54.3792
rfoot -33.5698 -26.5604
rtoes 17.4403
lfemur -67.4862 -6.85818 -5.68118
ltibia 44.0655
lfoot -39.0849 15.9381
ltoes 48.8579
137
root -0.257832 15.4812 9.49978 -170.444 -3.66035 -168.242
lowerback 6.10889 2.19899 10.5896
upperback -4.09823 3.80977 2.88901
thorax -7.31124 1.25622 -3.28522
lowerneck -13.806 0.106213 -1.79459
upperneck 30.7064 -2.42336 2.84015
head 12.51 -1.68293 0.870958
rclavicle 1.42263e-014 3.94277e-014
rhumerus 8.58438 21.6683 -98.1352
rradius 44.8994
rwrist -66.3478
rhand -20.2521 -11.9438
rfingers 7.12502
rthumb 6.0964 -41.8361
lclavicle 1.42263e-014 3.94277e-014
lhumerus 36.9651 -63.2757 77.5245
lradius 51.7616
lwrist -9.90792
lhand -9.20849 26.3257
lfingers 7.12502
lthumb 16.7457 55.6235
rfemur -29.434 4.87047 41.4701
rtibia 54.2207
rfoot -33.9317 -26.7611
rtoes 18.0327
lfemur -67.9527 -5.47391 -5.78149
ltibia 44.0174
lfoot -38.6023 17.5083
ltoes 48.6475
138
root -0.25963 15.4802 9.34154 -170.12 -3.54135 -168.66
lowerback 5.63719 2.38889 10.0545
upperback -4.25806 3.96742 2.64135
thorax -7.19975 1.36439 -3.25122
lowerneck -13.4691 -0.024334 -1.65436
upperneck 30.4597 -2.67882 2.9633
head 12.3475 -1.76615 0.858596
rclavicle 5.76165e-015 2.1916e-014
rhumerus 9.13857 24.6086 -97.0412
rradius 47.6032
rwrist -64.9201
rhand -16.8135 -13.6389
rfingers 7.12502
rthumb 9.41534 -43.4086
lclavicle 5.76165e-015 2.1916e-014
lhumerus 44.5068 -65.3478 68.8339
lradius 55.8419
lwrist -15.4114
lhand -8.05224 23.9007
lfingers 7.12502
lthumb 17.8586 53.1007
rfemur -28.8958 4.90968 41.0411
rtibia 53.9165
rfoot -34.4587 -26.6016
rtoes 18.141
lfemur -67.9052 -4.80441 -6.94403
ltibia 43.6811
lfoot -38.752 16.9485
ltoes 49.3796
139
root -0.27928 15.5436 9.15536 -169.884 -3.81947 -170.017
lowerback 4.50374 2.28184 8.60893
upperback -4.05436 3.58071 2.40211
thorax -6.42436 1.3047 -2.61939
lowerneck -13.7765 -0.077801 -1.72142
upperneck 30.3394 -2.64858 2.89207
head 12.3618 -1.74638 0.849283
rclavicle -1.30577e-014 -3.03147e-015
rhumerus 10.4624 29.7979 -94.5989
rradius 50.3314
rwrist -62.3385
rhand -12.6246 -13.0682
rfingers 7.12502
rthumb 13.455 -42.6137
lclavicle -1.30577e-014 -3.03147e-015
lhumerus 51.8894 -65.7977 60.4122
lradius 59.7885
lwrist -20.2887
lhand -7.07015 24.5845
lfingers 7.12502
lthumb 18.8034 53.6957
rfemur -27.972 4.06838 39.5041
rtibia 53.3292
rfoot -34.8154 -26.3545
rtoes 17.2535
lfemur -67.3217 -4.59398 -9.37746
ltibia 43.369
lfoot -36.9051 19.4198
ltoes 48.9329
140
root -0.289745 15.5941 8.97536 -169.695 -4.01692 -170.675
lowerback 3.49229 2.20706 7.47129
upperback -3.79315 3.29396 2.52884
thorax -5.65134 1.26064 -1.79076
lowerneck -14.1517 -0.0906351 -1.88059
upperneck 30.2258 -2.50921 2.77563
head 12.3899 -1.69081 0.855069
rclavicle -1.13183e-014 -2.64881e-014
rhumerus 12.1107 34.5475 -91.4076
rradius 53.1276
rwrist -58.6256
rhand -10.5541 -7.88709
rfingers 7.12502
rthumb 15.45 -37.2896
lclavicle -1.13183e-014 -2.64881e-014
lhumerus 60.0011 -65.7817 50.9363
lradius 64.2726
lwrist -23.4739
lhand -6.58279 23.4817
lfingers 7.12502
lthumb 19.272 52.5468
rfemur -26.967 3.62551 38.7581
rtibia 52.5747
rfoot -34.8976 -26.3173
rtoes 16.2517
lfemur -66.9022 -4.41874 -10.6982
ltibia 42.9351
lfoot -34.7022 23.3736
ltoes 47.8895
141
root -0.287857 15.6378 8.81055 -169.506 -4.01179 -171.05
lowerback 2.66182 2.26507 6.41372
upperback -3.57671 3.23159 2.71971
thorax -5.01201 1.30442 -0.968343
lowerneck -14.3119 -0.158024 -2.21784
upperneck 30.0961 -2.51619 2.94422
head 12.377 -1.69403 0.978511
rclavicle 1.08586e-014 -1.8487e-014
rhumerus 13.9823 38.8867 -87.6332
rradius 55.664
rwrist -51.5822
rhand -8.88668 -2.86816
rfingers 7.12502
rthumb 17.0555 -32.1395
lclavicle 1.08586e-014 -1.8487e-014
lhumerus 67.0383 -65.1244 42.4594
lradius 68.5334
lwrist -26.3123
lhand -5.98499 25.0671
lfingers 7.12502
lthumb 19.8468 54.0737
rfemur -26.0469 3.91068 38.3724
rtibia 51.7373
rfoot -34.9248 -26.5056
rtoes 15.8658
lfemur -66.3331 -4.18758 -11.4134
ltibia 42.6285
lfoot -35.5877 22.3615
ltoes 48.7512
142
root -0.288195 15.6785 8.64626 -169.214 -4.07391 -171.46
lowerback 1.6208 2.25491 5.32856
upperback -3.22192 3.078 2.92337
thorax -4.11813 1.3041 -0.104312
lowerneck -14.7296 -0.297208 -2.66692
upperneck 29.9631 -2.56057 3.09982
head 12.4196 -1.71589 1.11102
rclavicle -2.58544e-014 6.06293e-015
rhumerus 16.8335 42.3979 -83.0082
rradius 58.1495
rwrist -42.4054
rhand -6.58159 0.402525
rfingers 7.12502
rthumb 19.2732 -28.6624
lclavicle -2.58544e-014 6.06293e-015
lhumerus 72.9543 -63.5933 34.8164
lradius 72.5894
lwrist -28.3635
lhand -6.60834 26.005
lfingers 7.12502
lthumb 19.2475 55.0725
rfemur -25.204 4.27494 37.976
rtibia 50.9211
rfoot -34.7817 -26.8986
rtoes 14.9113
lfemur -65.9616 -3.91547 -12.2446
ltibia 42.3513
lfoot -35.6646 22.7861
ltoes 49.2475
143
root -0.294791 15.7249 8.47445 -168.811 -4.08675 -171.711
lowerback 0.310079 2.34941 4.56688
upperback -3.08357 3.07506 3.0269
thorax -3.27427 1.34527 0.477552
lowerneck -14.2367 -0.465434 -2.90446
upperneck 29.5373 -2.75067 3.22718
head 12.1573 -1.80747 1.17582
rclavicle 7.15625e-015 -5.56597e-015
rhumerus 19.1472 45.2495 -78.3792
rradius 60.8337
rwrist -32.2728
rhand -5.62948 4.02241
rfingers 7.12502
rthumb 20.1885 -24.9485
lclavicle 7.15625e-015 -5.56597e-015
lhumerus 77.338 -62.201 28.3849
lradius 76.4231
lwrist -29.6668
lhand -8.26234 26.8619
lfingers 7.12502
lthumb 17.6564 56.0802
rfemur -24.4554 4.79012 37.6504
rtibia 50.0951
rfoot -34.645 -26.9346
rtoes 14.772
lfemur -65.6798 -3.74843 -12.7607
ltibia 42.1948
lfoot -35.6088 23.3713
ltoes 49.8489
144
root -0.308539 15.7918 8.30051 -168.381 -4.14735 -171.932
lowerback -0.416985 2.24293 3.71118
upperback -2.95795 2.86031 3.34452
thorax -2.79531 1.26937 1.31391
lowerneck -15.3501 -0.483376 -3.37785
upperneck 29.9183 -2.59933 3.30109
head 12.5449 -1.75522 1.30672
rclavicle -2.127e-014 2.127e-014
rhumerus 22.0737 47.9637 -73.0792
rradius 62.906
rwrist -20.5946
rhand -5.96804 9.49634
rfingers 7.12502
rthumb 19.8631 -19.5086
lclavicle -2.127e-014 2.127e-014
lhumerus 79.3346 -60.1641 24.1649
lradius 79.7805
lwrist -30.292
lhand -11.2937 26.3385
lfingers 7.12502
lthumb 14.7376 55.7946
rfemur -23.8651 5.28336 37.2402
rtibia 49.2172
rfoot -34.111 -26.9725
rtoes 14.2317
lfemur -65.3314 -3.54189 -13.3303
ltibia 42.0817
lfoot -34.342 25.4323
ltoes 49.6917
145
root -0.323204 15.8629 8.11818 -167.956 -4.23558 -172.383
lowerback -0.801347 2.33124 2.91788
upperback -3.48966 2.95459 3.2437
thorax -3.1629 1.32356 1.65607
lowerneck -14.5688 -0.572866 -3.46305
upperneck 29.9559 -2.87787 3.47548
head 12.4117 -1.90658 1.34465
rclavicle 2.05245e-014 3.57812e-015
rhumerus 22.9621 50.1627 -69.0979
rradius 65.3689
rwrist -9.17606
rhand -9.5039 12.4141
rfingers 7.12502
rthumb 16.4613 -16.9075
lclavicle 2.05245e-014 3.57812e-015
lhumerus 80.8588 -59.5245 20.2572
lradius 82.6635
lwrist -30.3792
lhand -16.0828 23.3308
lfingers 7.12502
lthumb 10.1203 53.0674
rfemur -23.0726 5.67156 36.6583
rtibia 48.2599
rfoot -33.0431 -27.4524
rtoes 11.5493
lfemur -64.8483 -3.02052 -14.5316
ltibia 42.0834
lfoot -32.3895 27.6403
ltoes 48.9544
146
root -0.343267 15.9289 7.92722 -167.533 -4.34393 -173.055
lowerback -1.30249 2.29714 2.03143
upperback -3.91181 2.87942 3.0857
thorax -3.3526 1.30361 2.00103
lowerneck -13.9776 -0.577228 -3.58833
upperneck 29.9518 -2.96066 3.57394
head 12.2928 -1.97469 1.39118
rclavicle -1.76421e-014 -3.02153e-014
rhumerus 24.1496 51.5719 -65.1718
rradius 67.2788
rwrist 1.16621
rhand -12.4001 16.404
rfingers 7.12502
rthumb 13.6714 -13.127
lclavicle -1.76421e-014 -3.02153e-014
lhumerus 81.4094 -58.6571 17.0609
lradius 85.3133
lwrist -30.459
lhand -18.8407 25.0859
lfingers 7.12502
lthumb 7.45891 54.9344
rfemur -22.1064 5.8167 35.8589
rtibia 47.3091
rfoot -31.9713 -27.6954
rtoes 8.78511
lfemur -64.2083 -2.65074 -15.8766
ltibia 42.0432
lfoot -31.6787 28.2423
ltoes 48.7549
